<mxfile host="www.draw.io" modified="2019-11-11T09:40:49.536Z" agent="Mozilla/5.0 (Windows NT 10.0; Win64; x64) AppleWebKit/537.36 (KHTML, like Gecko) Chrome/78.0.3904.87 Safari/537.36" etag="ClrYbMBMpW5siG6rRDNA" version="12.2.3" type="github" pages="1">
  <diagram id="k8DtaSIvsyxrqFg2_6P-" name="Page-1">
    <mxGraphModel dx="1097" dy="659" grid="1" gridSize="10" guides="1" tooltips="1" connect="1" arrows="1" fold="1" page="1" pageScale="1" pageWidth="1169" pageHeight="827" math="0" shadow="0">
      <root>
        <mxCell id="0"/>
        <mxCell id="1" parent="0"/>
        <mxCell id="VisKUv_pg3tHPn-9GkEQ-7" style="edgeStyle=orthogonalEdgeStyle;rounded=0;orthogonalLoop=1;jettySize=auto;html=1;exitX=0.5;exitY=0;exitDx=0;exitDy=0;exitPerimeter=0;entryX=0.5;entryY=1;entryDx=0;entryDy=0;" edge="1" parent="1" source="VisKUv_pg3tHPn-9GkEQ-1" target="VisKUv_pg3tHPn-9GkEQ-5">
          <mxGeometry relative="1" as="geometry"/>
        </mxCell>
        <mxCell id="VisKUv_pg3tHPn-9GkEQ-1" value="user" style="shape=umlActor;verticalLabelPosition=bottom;labelBackgroundColor=#ffffff;verticalAlign=top;html=1;outlineConnect=0;" vertex="1" parent="1">
          <mxGeometry x="65" y="370" width="30" height="60" as="geometry"/>
        </mxCell>
        <mxCell id="VisKUv_pg3tHPn-9GkEQ-4" value="" style="rounded=1;whiteSpace=wrap;html=1;" vertex="1" parent="1">
          <mxGeometry x="300" y="200" width="120" height="60" as="geometry"/>
        </mxCell>
        <mxCell id="VisKUv_pg3tHPn-9GkEQ-12" style="edgeStyle=orthogonalEdgeStyle;rounded=0;orthogonalLoop=1;jettySize=auto;html=1;exitX=1;exitY=0.5;exitDx=0;exitDy=0;entryX=0;entryY=0.5;entryDx=0;entryDy=0;" edge="1" parent="1" source="VisKUv_pg3tHPn-9GkEQ-5" target="VisKUv_pg3tHPn-9GkEQ-4">
          <mxGeometry relative="1" as="geometry"/>
        </mxCell>
        <mxCell id="VisKUv_pg3tHPn-9GkEQ-5" value="&lt;font style=&quot;font-size: 18px&quot;&gt;input&lt;/font&gt;" style="shape=parallelogram;perimeter=parallelogramPerimeter;whiteSpace=wrap;html=1;" vertex="1" parent="1">
          <mxGeometry x="20" y="200" width="120" height="60" as="geometry"/>
        </mxCell>
        <mxCell id="VisKUv_pg3tHPn-9GkEQ-11" style="edgeStyle=orthogonalEdgeStyle;rounded=0;orthogonalLoop=1;jettySize=auto;html=1;exitX=0.5;exitY=0;exitDx=0;exitDy=0;" edge="1" parent="1" source="VisKUv_pg3tHPn-9GkEQ-6" target="VisKUv_pg3tHPn-9GkEQ-1">
          <mxGeometry relative="1" as="geometry">
            <mxPoint x="80" y="470" as="targetPoint"/>
          </mxGeometry>
        </mxCell>
        <mxCell id="VisKUv_pg3tHPn-9GkEQ-6" value="&lt;font style=&quot;font-size: 18px&quot;&gt;output&lt;/font&gt;" style="shape=parallelogram;perimeter=parallelogramPerimeter;whiteSpace=wrap;html=1;" vertex="1" parent="1">
          <mxGeometry x="20" y="540" width="120" height="60" as="geometry"/>
        </mxCell>
      </root>
    </mxGraphModel>
  </diagram>
</mxfile>
